HIERARCHY
ROOT Hips
{
	OFFSET -3.958830 18.904000 13.208200
	CHANNELS 6 Xposition Yposition Zposition Zrotation Yrotation Xrotation 
	JOINT LHipJoint
	{
		OFFSET 0.000000 0.000000 0.000000
		CHANNELS 3 Zrotation Yrotation Xrotation
		JOINT LeftUpLeg
		{
			OFFSET 1.800000 -1.400000 0.085000
			CHANNELS 3 Zrotation Yrotation Xrotation
			JOINT LeftLeg
			{
				OFFSET 2.215000 -6.000000 0.000000
				CHANNELS 3 Zrotation Yrotation Xrotation
				JOINT LeftFoot
				{
					OFFSET 2.500000 -6.900000 0.000000
					CHANNELS 3 Zrotation Yrotation Xrotation
					JOINT LeftToeBase
					{
						OFFSET 0.200000 -0.500000 1.950000
						CHANNELS 3 Zrotation Yrotation Xrotation
						End Site
						{
							OFFSET 0.000000 0.000000 0.000000
						}
					}
				}
			}
		}
	}
	JOINT RHipJoint
	{
		OFFSET 0.000000 0.000000 0.000000
		CHANNELS 3 Zrotation Yrotation Xrotation
		JOINT RightUpLeg
		{
			OFFSET -1.800000 -1.400000 0.085000
			CHANNELS 3 Zrotation Yrotation Xrotation
			JOINT RightLeg
			{
				OFFSET -2.215000 -6.000000 0.000000
				CHANNELS 3 Zrotation Yrotation Xrotation
				JOINT RightFoot
				{
					OFFSET -2.500000 -6.900000 0.000000
					CHANNELS 3 Zrotation Yrotation Xrotation
					JOINT RightToeBase
					{
						OFFSET -0.200000 -0.500000 1.950000
						CHANNELS 3 Zrotation Yrotation Xrotation
						End Site
						{
							OFFSET 0.000000 0.000000 0.000000
						}
					}
				}
			}
		}
	}
	JOINT LowerBack
	{
		OFFSET 0.000000 0.000000 0.000000
		CHANNELS 3 Zrotation Yrotation Xrotation
		JOINT Spine
		{
			OFFSET -0.087000 1.940000 -0.288900
			CHANNELS 3 Zrotation Yrotation Xrotation
			JOINT Spine1
			{
				OFFSET 0.000000 1.950000 0.060000
				CHANNELS 3 Zrotation Yrotation Xrotation
				JOINT Neck
				{
					OFFSET 0.000000 0.000000 0.000000
					CHANNELS 3 Zrotation Yrotation Xrotation
					JOINT Neck1
					{
						OFFSET 0.000000 1.600000 0.340000
						CHANNELS 3 Zrotation Yrotation Xrotation
						JOINT Head
						{
							OFFSET 0.000000 1.667000 -0.240000
							CHANNELS 3 Zrotation Yrotation Xrotation
							End Site
							{
								OFFSET 0.000000 0.000000 0.000000
							}
						}
					}
				}
				JOINT LeftShoulder
				{
					OFFSET 0.000000 0.000000 0.000000
					CHANNELS 3 Zrotation Yrotation Xrotation
					JOINT LeftArm
					{
						OFFSET 2.700000 1.550000 -0.730000
						CHANNELS 3 Zrotation Yrotation Xrotation
						JOINT LeftForeArm
						{
							OFFSET 5.450000 0.000000 0.000000
							CHANNELS 3 Zrotation Yrotation Xrotation
							JOINT LeftHand
							{
								OFFSET 3.450000 0.000000 0.000000
								CHANNELS 3 Zrotation Yrotation Xrotation
								JOINT LeftHandIndex1
								{
									OFFSET 0.750000 0.000000 0.000000
									CHANNELS 3 Zrotation Yrotation Xrotation
									End Site
									{
										OFFSET 0.000000 0.000000 0.000000
									}
								}
							}
						}
					}
				}
				JOINT RightShoulder
				{
					OFFSET 0.000000 0.000000 0.000000
					CHANNELS 3 Zrotation Yrotation Xrotation
					JOINT RightArm
					{
						OFFSET -2.700000 1.550000 -0.730000
						CHANNELS 3 Zrotation Yrotation Xrotation
						JOINT RightForeArm
						{
							OFFSET -5.450000 0.000000 0.000000
							CHANNELS 3 Zrotation Yrotation Xrotation
							JOINT RightHand
							{
								OFFSET -3.450000 0.000000 0.000000
								CHANNELS 3 Zrotation Yrotation Xrotation
								JOINT RightHandIndex1
								{
									OFFSET -0.750000 0.000000 0.000000
									CHANNELS 3 Zrotation Yrotation Xrotation
									End Site
									{
										OFFSET 0.000000 0.000000 0.000000
									}
								}
							}
						}
					}
				}
			}
		}
	}
}
MOTION
Frames: 14
Frame Time: 0.016667
0.032200 17.246940 -0.243940 -4.019711 -4.031871 7.484628 -15.236930 12.610231 2.913654 -0.123486 -0.947128 -7.320623 -5.948319 3.258410 1.106651 -0.829804 4.974476 3.655096 -0.066460 -0.713610 -0.253170 18.395429 -10.577609 2.930736 -0.258407 0.519974 -7.761510 8.444623 -5.002948 2.455835 -0.592700 -4.314560 2.795160 -0.230590 1.751660 1.401140 -3.633892 -0.990260 -6.979859 7.649204 2.510772 2.193607 -0.377559 1.656600 8.025717 2.774678 -0.723778 -9.203610 -1.348568 7.849316 27.362025 -5.427790 6.336540 -2.192590 -17.328766 -11.110578 3.992432 -53.426454 -12.153968 2.549854 -23.828813 -21.623839 1.328033 -4.726659 2.841244 0.835570 1.050380 -0.009440 0.715940 12.645067 12.408452 6.129513 54.836684 11.071901 -2.701688 25.039662 27.761393 3.302962 1.791654 -1.553214 -0.541800 0.453400 0.377420 0.239350 
0.033950 17.246990 -0.241410 -4.130980 -4.067367 7.492253 -15.232594 12.604792 2.912736 -0.031765 -0.943324 -7.245375 -5.944076 3.249231 0.993567 -0.828217 4.987085 3.648050 -0.074130 -0.726280 -0.254750 18.401465 -10.574986 2.935420 -0.133531 0.515021 -7.711561 8.376059 -4.992796 2.389587 -0.593856 -4.313405 2.789799 -0.239050 1.750800 1.408010 -3.648816 -0.982076 -6.982645 7.883170 2.520817 2.159450 -0.438950 1.655264 7.992838 2.822293 -0.757653 -9.188293 -1.413683 7.844085 27.439816 -5.566510 6.377920 -2.147100 -17.476924 -11.063789 3.974349 -53.418101 -12.109657 2.557417 -23.749616 -21.583001 1.307085 -4.732766 2.843376 0.837420 1.050790 -0.009220 0.709010 12.685966 12.361430 6.127714 54.749009 11.013630 -2.705268 25.094382 27.760447 3.334601 1.792822 -1.550671 -0.539920 0.446960 0.386510 0.236970 
0.034300 17.245770 -0.237060 -4.168746 -4.062473 7.513712 -15.230089 12.591701 2.908379 0.013627 -0.939566 -7.184611 -5.941221 3.243177 0.923603 -0.827820 4.996208 3.648252 -0.078030 -0.731100 -0.258580 18.406426 -10.576179 2.940503 -0.083880 0.502062 -7.620971 8.363489 -4.983275 2.255978 -0.593270 -4.328583 2.788996 -0.239610 1.757140 1.409770 -3.659896 -0.952930 -6.979134 7.981834 2.545076 2.074635 -0.509926 1.667245 7.961756 2.908643 -0.718283 -9.160541 -1.325405 7.834977 27.387115 -5.694040 6.447470 -1.954810 -17.496332 -10.946162 3.925093 -53.451505 -12.099808 2.604694 -23.729939 -21.514214 1.306641 -4.740782 2.843479 0.833190 1.058860 -0.014580 0.711010 12.530837 12.221261 6.104824 54.875015 11.007623 -2.643493 25.165030 27.688725 3.338012 1.789907 -1.555978 -0.542720 0.445890 0.387490 0.236890 
0.035700 17.244810 -0.233640 -4.257611 -4.188940 7.490936 -15.223199 12.587202 2.900937 0.062584 -0.928811 -7.097539 -5.829017 3.235222 0.933514 -0.830147 4.997592 3.647569 -0.086640 -0.739290 -0.261430 18.413808 -10.584476 2.947042 0.005363 0.485788 -7.535630 8.304548 -4.977928 2.205374 -0.590568 -4.333914 2.789278 -0.242500 1.758860 1.406770 -3.679685 -0.924045 -6.977374 8.215685 2.592613 2.053070 -0.636035 1.711173 8.003155 3.003246 -0.741157 -9.181698 -1.352613 7.873136 27.419166 -5.825770 6.549090 -1.870610 -17.493800 -10.950913 3.922155 -53.481028 -12.095674 2.605925 -23.607541 -21.459513 1.277179 -4.747479 2.836057 0.831150 1.062510 -0.018380 0.705760 12.332150 12.244115 6.141026 54.951487 11.021628 -2.633862 25.272714 27.696586 3.356886 1.789049 -1.553515 -0.546750 0.447340 0.392830 0.234390 
0.035120 17.241990 -0.229240 -4.373677 -4.239184 7.556106 -15.216064 12.574914 2.891316 0.178252 -0.933649 -7.065551 -5.737339 3.217284 0.853615 -0.828952 5.007034 3.655213 -0.098450 -0.753010 -0.264620 18.422652 -10.591878 2.951551 0.123662 0.491437 -7.559929 8.332448 -4.980168 2.210169 -0.582908 -4.339239 2.793499 -0.246150 1.775780 1.404150 -3.702649 -0.882490 -6.968295 8.414307 2.641591 1.950322 -0.741523 1.742924 7.962889 3.075131 -0.669804 -9.151794 -1.203137 7.859867 27.240822 -5.880890 6.606560 -1.592450 -17.496687 -10.855855 3.880271 -53.458946 -12.093542 2.665461 -23.756189 -21.407972 1.314848 -4.763214 2.826282 0.822310 1.075690 -0.029170 0.706030 12.180634 12.079123 6.112584 55.059543 10.973364 -2.584478 25.439439 27.652854 3.377484 1.788856 -1.554203 -0.555540 0.455910 0.395650 0.235840 
0.033620 17.240850 -0.225840 -4.383163 -4.290317 7.617669 -15.216973 12.571182 2.887968 0.190155 -0.936953 -7.057873 -5.679052 3.206119 0.807050 -0.840513 5.017298 3.653968 -0.112260 -0.770930 -0.273480 18.423505 -10.587517 2.954578 0.170145 0.497138 -7.568748 8.367557 -4.977832 2.138888 -0.576519 -4.339593 2.795553 -0.250500 1.786560 1.399170 -3.702360 -0.879392 -6.964078 8.406524 2.686553 1.891761 -0.723563 1.785401 7.823468 3.089333 -0.632098 -9.066800 -1.133119 7.876781 27.221096 -5.850770 6.608610 -1.515520 -17.489582 -10.596753 3.768790 -53.509245 -12.117071 2.797118 -23.824088 -21.235830 1.319324 -4.777004 2.815317 0.824670 1.081190 -0.039500 0.700520 12.143169 11.781378 6.025680 55.037382 10.924378 -2.487869 25.706429 27.550105 3.447900 1.783945 -1.545916 -0.567500 0.465380 0.409910 0.231480 
0.029930 17.239000 -0.222320 -4.304290 -4.275208 7.655306 -15.223715 12.572102 2.889724 0.146238 -0.937865 -7.019831 -5.619759 3.188427 0.715489 -0.851568 5.024912 3.656613 -0.116060 -0.777770 -0.273590 18.419118 -10.575967 2.953006 0.152720 0.496295 -7.550737 8.385526 -4.969635 2.060716 -0.573741 -4.339157 2.797767 -0.248880 1.795170 1.391320 -3.686657 -0.902117 -6.961022 8.231166 2.657718 1.837287 -0.628916 1.757553 7.733838 3.040695 -0.617324 -9.002397 -1.111836 7.901875 27.182107 -5.728800 6.555780 -1.553060 -17.441546 -10.426484 3.710208 -53.560356 -12.108228 2.876996 -23.913658 -21.107938 1.320543 -4.779820 2.802219 0.831530 1.082130 -0.045190 0.700060 12.200071 11.591319 5.938985 54.834627 10.940263 -2.352241 26.068116 27.370407 3.523490 1.783301 -1.539050 -0.580720 0.478280 0.413450 0.228760 
0.024800 17.236590 -0.218280 -4.264140 -4.199739 7.704682 -15.228329 12.571298 2.884254 0.154093 -0.946099 -7.062224 -5.607333 3.189597 0.759178 -0.852610 5.024845 3.656937 -0.114520 -0.778120 -0.272170 18.416729 -10.569134 2.957424 0.246002 0.491175 -7.512116 8.302187 -4.939388 1.927414 -0.573521 -4.337036 2.798796 -0.248310 1.796530 1.393000 -3.676547 -0.909132 -6.956546 8.076667 2.637336 1.776789 -0.540450 1.730121 7.675203 3.007150 -0.565724 -8.963935 -1.019884 7.831167 27.065361 -5.696330 6.478180 -1.538640 -17.386070 -10.312904 3.676325 -53.604981 -12.102572 2.914357 -23.937074 -21.084443 1.327449 -4.783959 2.805786 0.828270 1.084170 -0.048160 0.699440 12.218628 11.440790 5.883146 54.795389 10.920499 -2.291091 26.209057 27.303654 3.551121 1.782189 -1.542398 -0.579150 0.477310 0.414490 0.228050 
0.021000 17.237460 -0.215260 -4.321882 -4.173796 7.686201 -15.230156 12.571950 2.884632 0.234616 -0.940509 -6.975572 -5.545271 3.167227 0.642547 -0.851760 5.025963 3.652134 -0.108150 -0.771730 -0.268950 18.416338 -10.561936 2.964440 0.381502 0.472636 -7.397930 8.219447 -4.923748 1.813915 -0.583579 -4.334563 2.797233 -0.247750 1.788270 1.399360 -3.673085 -0.919054 -6.965765 8.121995 2.593158 1.814631 -0.516938 1.679022 7.659200 3.031241 -0.575147 -8.971237 -1.040712 7.831250 27.172032 -5.732630 6.483060 -1.788010 -17.500247 -10.325783 3.683327 -53.563414 -12.017510 2.859036 -23.827519 -21.091924 1.297856 -4.778337 2.806069 0.836460 1.078200 -0.037730 0.700360 12.286238 11.463823 5.894565 54.727852 10.901636 -2.319866 26.178227 27.322280 3.560883 1.780810 -1.538591 -0.573540 0.473970 0.413370 0.227160 
0.017480 17.236780 -0.212960 -4.354241 -4.177633 7.754954 -15.229090 12.566042 2.883215 0.319773 -0.942745 -7.007876 -5.612908 3.165628 0.581730 -0.829403 5.022698 3.650135 -0.104170 -0.758720 -0.277340 18.418494 -10.559704 2.967162 0.462450 0.475080 -7.409894 8.169784 -4.906068 1.744703 -0.588132 -4.335031 2.798810 -0.247700 1.787890 1.416220 -3.677485 -0.909850 -6.965274 8.162865 2.555227 1.785510 -0.566975 1.630463 7.582298 3.065620 -0.553673 -8.934291 -0.985853 7.867609 27.036371 -5.791550 6.553080 -1.767270 -17.590097 -10.207110 3.660175 -53.468598 -11.908166 2.820255 -23.893894 -21.174446 1.338284 -4.786457 2.823389 0.818940 1.085970 -0.031020 0.706470 12.302889 11.328456 5.836395 54.784791 10.918163 -2.257953 26.176950 27.275153 3.564820 1.781693 -1.548871 -0.551730 0.460970 0.410390 0.237940 
0.013880 17.238630 -0.211470 -4.359609 -4.270030 7.740925 -15.228076 12.568549 2.886188 0.336437 -0.928537 -6.969591 -5.636506 3.163909 0.543154 -0.818918 5.014238 3.648807 -0.097920 -0.741690 -0.285230 18.418682 -10.556905 2.969382 0.433147 0.465464 -7.370430 8.233159 -4.912677 1.710607 -0.597044 -4.336149 2.800967 -0.243570 1.782220 1.419050 -3.678620 -0.919605 -6.973037 8.192826 2.517012 1.846059 -0.597034 1.598852 7.556208 3.038508 -0.606261 -8.930531 -1.083066 7.933359 27.156428 -5.687760 6.536960 -1.999140 -17.674675 -10.202372 3.677612 -53.296090 -11.800198 2.757702 -24.155682 -21.315008 1.412070 -4.777737 2.827437 0.818630 1.080920 -0.019870 0.713080 12.436234 11.363271 5.820456 54.622664 10.961664 -2.225510 26.184810 27.224218 3.580016 1.782895 -1.544993 -0.541120 0.460690 0.406190 0.245590 
0.009250 17.239080 -0.210170 -4.329086 -4.366323 7.744545 -15.226595 12.570493 2.890516 0.344824 -0.919165 -6.949237 -5.712937 3.167670 0.516305 -0.792725 4.992936 3.648304 -0.078690 -0.706630 -0.286670 18.419818 -10.554623 2.968653 0.432640 0.454074 -7.360439 8.163891 -4.889680 1.679327 -0.606649 -4.328105 2.804902 -0.234450 1.766690 1.424790 -3.681572 -0.930333 -6.977391 8.177482 2.460935 1.876134 -0.639342 1.551533 7.486570 2.956790 -0.704741 -8.892715 -1.259662 8.026774 27.222989 -5.477600 6.497700 -2.191710 -17.742373 -10.090044 3.673826 -53.112060 -11.689310 2.717941 -24.483619 -21.448940 1.519613 -4.759880 2.847901 0.807880 1.071580 -0.003450 0.723990 12.657247 11.323235 5.757479 54.426697 11.024541 -2.136374 26.172505 27.143416 3.591394 1.793058 -1.553343 -0.516260 0.448630 0.388560 0.259180 
0.006040 17.240060 -0.208080 -4.298345 -4.366402 7.710433 -15.226919 12.578609 2.889713 0.328971 -0.901088 -6.944374 -5.730578 3.174939 0.601576 -0.765997 4.961668 3.647591 -0.060130 -0.666960 -0.292580 18.418365 -10.551053 2.973313 0.406013 0.432756 -7.282171 8.149830 -4.871619 1.567728 -0.623239 -4.327089 2.804337 -0.225400 1.747960 1.434040 -3.678599 -0.949497 -6.984607 8.155730 2.401251 1.944652 -0.666904 1.495249 7.429390 2.921459 -0.750397 -8.870438 -1.348442 8.104397 27.360392 -5.326580 6.510770 -2.503310 -17.788197 -10.021658 3.669265 -52.952207 -11.642195 2.713146 -24.800212 -21.459621 1.607916 -4.741837 2.869804 0.797880 1.060760 0.019240 0.735570 12.768264 11.285008 5.712644 54.379779 11.069379 -2.091690 26.049181 27.061852 3.571976 1.802390 -1.559770 -0.486840 0.434890 0.372490 0.274980 
0.000900 17.238470 -0.205980 -4.229007 -4.418934 7.740782 -15.230500 12.573940 2.891321 0.294076 -0.897087 -6.932566 -5.727806 3.150873 0.548962 -0.747420 4.935523 3.645807 -0.033370 -0.622390 -0.301740 18.415819 -10.547099 2.972624 0.333439 0.430617 -7.276357 8.209647 -4.865378 1.485011 -0.637991 -4.340848 2.799150 -0.209240 1.735450 1.452430 -3.669577 -0.949277 -6.982377 7.981573 2.415219 1.919520 -0.590634 1.495868 7.347129 2.868683 -0.741138 -8.815213 -1.319571 8.172461 27.263295 -5.106260 6.468200 -2.707500 -17.713187 -9.845451 3.615344 -53.009336 -11.676879 2.781954 -24.904731 -21.392273 1.641922 -4.728172 2.904220 0.787290 1.057950 0.036740 0.754920 12.807639 11.123418 5.633716 54.426319 11.087145 -1.997058 26.053481 26.913305 3.554716 1.802954 -1.582984 -0.457880 0.413850 0.354080 0.291580 
